<?xml version="1.0" encoding="utf-8"?>
<!DOCTYPE svg PUBLIC "-//W3C//DTD SVG 1.1//EN" "http://www.w3.org/Graphics/SVG/1.1/DTD/svg11.dtd">
<svg>
<symbol id="logo" width="31" height="31" viewBox="0 0 31 31" fill="none" xmlns="http://www.w3.org/2000/svg">
<path d="M15.5 0C6.93911 0 0 6.8563 0 15.315C0 23.7737 6.93911 30.63 15.5 30.63C24.0609 30.63 31 23.7737 31 15.315C31 6.8563 24.0609 0 15.5 0ZM15.5 29.9313C7.32993 29.9313 0.707204 23.3876 0.707204 15.315C0.707204 7.24245 7.32993 0.701391 15.5 0.701391C23.6701 0.701391 30.2928 7.24508 30.2928 15.3176C30.2928 23.3902 23.6701 29.9313 15.5 29.9313Z" fill="#2276F9"/>
<path d="M19.5253 18.5302H24.396C25.0607 18.5302 25.4834 17.9759 25.4249 17.2273C25.4249 16.4523 25.0128 16.0163 23.4921 16.0163C20.8414 15.9401 20.174 13.3578 20.174 12.4883H24.2391C26.834 12.4883 28.9397 14.5662 28.9397 17.1327V17.3218C28.9397 19.8857 26.8366 21.9663 24.2391 21.9663H22.6439C20.9078 21.9663 19.5067 20.5661 19.5253 18.8533V18.5302Z" fill="url(#paint0_linear)"/>
<path d="M16.0371 8.93408V18.5907C16.0371 20.4558 17.5658 21.9663 19.4535 21.9663H23.3298C19.4535 21.9663 19.5279 18.5303 19.5279 18.5303L19.4535 12.3097C19.4535 10.4446 17.9221 8.93408 16.0371 8.93408Z" fill="#0085FF"/>
<path d="M11.3208 12.3701H6.45017C5.78551 12.3701 5.36278 12.9244 5.42127 13.6731C5.42127 14.448 5.83336 14.8841 7.35412 14.8841C10.0048 14.9603 10.6721 17.5425 10.6721 18.4121H6.60969C4.01484 18.4121 1.90918 16.3342 1.90918 13.7676V13.5785C1.90918 11.0146 4.01218 8.93408 6.60969 8.93408H8.20489C9.941 8.93408 11.3421 10.3342 11.3235 12.047L11.3208 12.3701Z" fill="url(#paint1_linear)"/>
<path d="M14.8115 21.9663V12.3097C14.8115 10.4446 13.2828 8.93408 11.3951 8.93408H7.5188C11.3951 8.93408 11.3207 12.3701 11.3207 12.3701L11.3951 18.5907C11.3951 20.4532 12.9239 21.9663 14.8115 21.9663Z" fill="#0095FF"/>
<defs>
<linearGradient id="paint0_linear" x1="28.4718" y1="15.9224" x2="19.2865" y2="17.9659" gradientUnits="userSpaceOnUse">
<stop offset="0.0171519" stop-color="#0063FF"/>
<stop offset="0.3602" stop-color="#0061FF"/>
<stop offset="0.5143" stop-color="#005AFF"/>
<stop offset="0.6306" stop-color="#004DFF"/>
<stop offset="0.7279" stop-color="#003BFF"/>
<stop offset="0.8133" stop-color="#0023FF"/>
<stop offset="0.8893" stop-color="#0007FF"/>
<stop offset="0.9052" stop-color="#0000FF"/>
</linearGradient>
<linearGradient id="paint1_linear" x1="2.28801" y1="15.1687" x2="11.409" y2="12.861" gradientUnits="userSpaceOnUse">
<stop offset="0.2986" stop-color="#0095FF"/>
<stop offset="0.5554" stop-color="#0093FF"/>
<stop offset="0.6708" stop-color="#008CFF"/>
<stop offset="0.7578" stop-color="#007FFF"/>
<stop offset="0.8307" stop-color="#006DFF"/>
<stop offset="0.8947" stop-color="#0055FF"/>
<stop offset="0.9515" stop-color="#0039FF"/>
<stop offset="1" stop-color="#001AFF"/>
</linearGradient>
</defs>
</symbol>
<symbol id="bell"  viewBox="0 0 9 12" fill="none" xmlns="http://www.w3.org/2000/svg">
<path d="M0.185809 9.54968C0.219243 9.52678 0.470872 9.34081 0.722836 8.77819C1.18555 7.74502 1.28268 6.28959 1.28268 5.25059C1.28268 5.24606 1.28277 5.24159 1.28292 5.23709C1.28796 3.86391 2.06733 2.68017 3.18262 2.14905V1.33678C3.18262 0.599672 3.75008 0 4.44759 0H4.55242C5.24993 0 5.81739 0.599672 5.81739 1.33678V2.14901C6.9364 2.68184 7.71733 3.87162 7.71733 5.25059C7.71733 6.28959 7.81445 7.74499 8.27717 8.77819C8.52911 9.34078 8.78074 9.52676 8.8142 9.54968C8.95508 9.61847 9.02455 9.77738 8.99214 9.93841C8.95942 10.101 8.81533 10.2132 8.65798 10.2132H6.2155C6.20186 11.2009 5.4378 12 4.49999 12C3.56218 12 2.79812 11.2009 2.78448 10.2132H0.342003C0.184676 10.2132 0.0405674 10.101 0.00784397 9.93841C-0.0245228 9.77738 0.0449219 9.61845 0.185809 9.54968ZM5.15091 1.33678C5.15091 0.988008 4.88242 0.704273 4.5524 0.704273H4.44756C4.11754 0.704273 3.84905 0.988008 3.84905 1.33678V1.92077C4.05938 1.87491 4.27711 1.85077 4.50008 1.85077C4.72299 1.85077 4.94065 1.87488 5.15089 1.9207V1.33678H5.15091ZM4.49999 11.2957C5.07032 11.2957 5.53552 10.8125 5.54905 10.2132H3.45095C3.46446 10.8125 3.92967 11.2957 4.49999 11.2957ZM3.1582 9.50887C3.15827 9.50887 7.89856 9.50887 7.89856 9.50887C7.84091 9.41409 7.78224 9.30677 7.72393 9.18548C7.27732 8.25635 7.05086 6.93246 7.05086 5.25059C7.05086 3.76425 5.90658 2.55504 4.5001 2.55504C3.09362 2.55504 1.94935 3.76425 1.94935 5.25176C1.94935 5.25609 1.94928 5.26041 1.94913 5.26472C1.94786 6.93984 1.72142 8.25898 1.27606 9.18548C1.21774 9.3068 1.15905 9.41409 1.10142 9.50887H3.1582Z" fill="currentColor"/>
</symbol>
<symbol id="settings" viewBox="0 0 12 12" fill="none" xmlns="http://www.w3.org/2000/svg">
<path fill-rule="evenodd" clip-rule="evenodd" d="M5.62343 12H6.37655C6.98569 12 7.48125 11.5044 7.48125 10.8954V10.6406C7.74021 10.5578 7.99181 10.4534 8.23352 10.3283L8.41392 10.5087C8.8504 10.9457 9.55076 10.935 9.97636 10.5089L10.5087 9.97655C10.9342 9.55146 10.9463 8.8511 10.5088 8.41409L10.3283 8.23352C10.4534 7.99181 10.5578 7.74023 10.6405 7.48125H10.8953C11.5044 7.48125 12 6.98569 12 6.37657V5.62343C12 5.01431 11.5044 4.51875 10.8953 4.51875H10.6405C10.5578 4.25974 10.4534 4.00819 10.3283 3.76648L10.5087 3.58605C10.9464 3.14878 10.9342 2.44849 10.5088 2.02359L9.97655 1.49133C9.55193 1.06615 8.85141 1.0533 8.41409 1.49116L8.23352 1.67173C7.99181 1.54664 7.74021 1.4422 7.48125 1.35947V1.10468C7.48125 0.495562 6.98569 0 6.37657 0H5.62345C5.01431 0 4.51875 0.495562 4.51875 1.10468V1.35945C4.25979 1.4422 4.00819 1.54664 3.76648 1.6717L3.58608 1.4913C3.1496 1.05434 2.44924 1.06498 2.02364 1.49116L1.4913 2.02348C1.06575 2.44856 1.05368 3.14892 1.49116 3.58594L1.67173 3.76648C1.54664 4.00819 1.44223 4.25977 1.35947 4.51875H1.1047C0.495586 4.51875 0 5.01431 0 5.62343V6.37657C0 6.98569 0.495586 7.48125 1.10468 7.48125H1.35945C1.4422 7.74026 1.54662 7.99181 1.6717 8.23352L1.49128 8.41395C1.05354 8.85122 1.06577 9.55151 1.49114 9.97641L2.02343 10.5087C2.44805 10.9339 3.14857 10.9467 3.58589 10.5088L3.76645 10.3283C4.00816 10.4534 4.25977 10.5578 4.51873 10.6405V10.8953C4.51873 11.5044 5.01431 12 5.62343 12ZM4.95816 10.0358C4.58119 9.93853 4.21978 9.78851 3.88399 9.58992C3.714 9.48938 3.54002 9.56032 3.4564 9.64392L3.08857 10.0118C2.9298 10.1708 2.67518 10.1662 2.5208 10.0116L1.98818 9.47902C1.83352 9.32454 1.82937 9.07001 1.98832 8.91124L2.35603 8.54353C2.46952 8.43005 2.49173 8.25413 2.41005 8.11598C2.21149 7.78022 2.06147 7.41881 1.96418 7.04182C1.9241 6.88659 1.78411 6.77813 1.62377 6.77813H1.1047C0.883289 6.77813 0.703125 6.59798 0.703125 6.37657V5.62343C0.703125 5.40202 0.883289 5.22187 1.1047 5.22185H1.6238C1.78411 5.22185 1.92412 5.11341 1.9642 4.95816C2.06149 4.58116 2.21149 4.21976 2.41008 3.88399C2.49176 3.74585 2.46954 3.56993 2.35605 3.45645L1.9882 3.08859C1.82892 2.9295 1.83408 2.6749 1.98834 2.52082L2.52101 1.98818C2.67563 1.8333 2.93023 1.82963 3.08876 1.98834L3.45645 2.35605C3.56993 2.46954 3.74583 2.49176 3.88402 2.41008C4.2198 2.21149 4.58121 2.06147 4.95818 1.96418C5.11343 1.92412 5.2219 1.78411 5.2219 1.62377V1.10468C5.2219 0.883266 5.40206 0.703125 5.62348 0.703125H6.37659C6.59801 0.703125 6.77817 0.883266 6.77817 1.10468V1.62382C6.77817 1.78416 6.88664 1.92417 7.04189 1.96423C7.41886 2.06152 7.78027 2.21154 8.11605 2.41013C8.25417 2.49183 8.43014 2.46961 8.54362 2.3561L8.91145 1.98825C9.07022 1.82927 9.32484 1.8338 9.47923 1.98839L10.0118 2.52101C10.1665 2.67548 10.1707 2.93002 10.0117 3.08878L9.64399 3.45649C9.53051 3.56998 9.50829 3.7459 9.58997 3.88404C9.78853 4.2198 9.93855 4.58121 10.0358 4.9582C10.0759 5.11343 10.2159 5.2219 10.3763 5.2219H10.8953C11.1167 5.2219 11.2969 5.40204 11.2969 5.62345V6.37659C11.2969 6.59801 11.1167 6.77815 10.8953 6.77815H10.3763C10.2159 6.77815 10.0759 6.88659 10.0358 7.04184C9.93855 7.41884 9.78855 7.78024 9.58997 8.11601C9.50829 8.25415 9.53051 8.43007 9.64399 8.54355L10.0118 8.91141C10.1711 9.07048 10.166 9.3251 10.0117 9.47918L9.47904 10.0118C9.3244 10.1667 9.06982 10.1704 8.91129 10.0117L8.5436 9.64395C8.43009 9.53044 8.2542 9.50822 8.11603 9.58992C7.78024 9.78851 7.41884 9.93853 7.04187 10.0358C6.88662 10.0759 6.77815 10.2159 6.77815 10.3762V10.8953C6.77815 11.1167 6.59798 11.2969 6.37657 11.2969H5.62345C5.40204 11.2969 5.22188 11.1167 5.22188 10.8953V10.3762C5.22188 10.2159 5.11341 10.0759 4.95816 10.0358ZM3.38892 6.00001C3.38892 7.43968 4.56016 8.61094 5.99985 8.61094C7.43955 8.61094 8.61079 7.43968 8.61079 6.00001C8.61079 4.56033 7.43955 3.38907 5.99985 3.38907C4.56016 3.38907 3.38892 4.56033 3.38892 6.00001ZM4.09204 6.00001C4.09204 4.94804 4.94786 4.09219 5.99985 4.09219C7.05185 4.09219 7.90767 4.94804 7.90767 6.00001C7.90767 7.05198 7.05182 7.90782 5.99985 7.90782C4.94788 7.90782 4.09204 7.05198 4.09204 6.00001Z" fill="currentColor"/>
</symbol>
<symbol id="user" viewBox="0 0 13 14" fill="none" xmlns="http://www.w3.org/2000/svg">
<path fill-rule="evenodd" clip-rule="evenodd" d="M2.6 3.69141C2.6 1.65596 4.34954 0 6.5 0C8.65046 0 10.4 1.65596 10.4 3.69141C10.4 5.72685 8.65046 7.38281 6.5 7.38281C4.34954 7.38281 2.6 5.72685 2.6 3.69141ZM3.46667 3.69141C3.46667 5.27453 4.82742 6.5625 6.5 6.5625C8.17258 6.5625 9.53333 5.27453 9.53333 3.69141C9.53333 2.10829 8.17258 0.820312 6.5 0.820312C4.82742 0.820312 3.46667 2.10829 3.46667 3.69141ZM5.29146 8.23047H7.70851C9.71016 8.23047 11.6826 9.10684 13 10.9774V14H0V10.9774C1.31933 9.10413 3.29229 8.23047 5.29146 8.23047ZM12.1333 13.1797H12.1334V11.2284C11.1213 9.86243 9.47697 9.05078 7.70854 9.05078H5.29149C3.52306 9.05078 1.87867 9.86243 0.866667 11.2284V13.1797H12.1333Z" fill="currentColor"/>
</symbol>
<symbol id="avatar" viewBox="0 0 40 40" fill="none" xmlns="http://www.w3.org/2000/svg">
<circle cx="20" cy="20" r="20" fill="currentColor"/>
<path d="M20 0C8.96 0 0 8.96 0 20C0 31.04 8.96 40 20 40C31.04 40 40 31.04 40 20C40 8.96 31.04 0 20 0ZM20 6C23.32 6 26 8.68 26 12C26 15.32 23.32 18 20 18C16.68 18 14 15.32 14 12C14 8.68 16.68 6 20 6ZM20 34.4C15 34.4 10.58 31.84 8 27.96C8.06 23.98 16 21.8 20 21.8C23.98 21.8 31.94 23.98 32 27.96C29.42 31.84 25 34.4 20 34.4Z" fill="#CDE0FF"/>
</symbol>
<symbol id="wallet" viewBox="0 0 13 11" fill="none" xmlns="http://www.w3.org/2000/svg">
<path d="M11.0703 0H1.92969C0.865643 0 0 0.937557 0 2.09V8.91C0 10.0624 0.865643 11 1.92969 11H11.0703C12.1344 11 13 10.0624 13 8.91V6.6V4.4V2.09C13 0.937557 12.1344 0 11.0703 0ZM11.0703 10.12H1.92969C1.31366 10.12 0.8125 9.5772 0.8125 8.91V2.09C0.8125 1.4228 1.31366 0.88 1.92969 0.88H11.0703C11.6863 0.88 12.1875 1.4228 12.1875 2.09V3.96H9.95312C9.16911 3.96 8.53125 4.65086 8.53125 5.5C8.53125 6.34914 9.16911 7.04 9.95312 7.04H12.1875V8.91C12.1875 9.5772 11.6863 10.12 11.0703 10.12ZM12.1875 6.16H9.95312C9.61711 6.16 9.34375 5.86393 9.34375 5.5C9.34375 5.13607 9.61711 4.84 9.95312 4.84H12.1875V6.16Z" fill="currentColor"/>
</symbol>
<symbol id="partner" viewBox="0 0 15 14" fill="none" xmlns="http://www.w3.org/2000/svg">
<path d="M14.05 10.8182C14.05 9.69812 13.2236 8.77836 12.1542 8.62034V7.81818C12.1542 7.18925 11.646 6.67726 11.0208 6.67726H7.82082V5.37966C8.8903 5.22164 9.71666 4.30191 9.71666 3.18182C9.71666 1.9515 8.72288 0.95 7.5 0.95C6.27712 0.95 5.28334 1.9515 5.28334 3.18182C5.28334 4.30191 6.1097 5.22167 7.17918 5.37966V6.67726H3.97918C3.35404 6.67726 2.84584 7.18922 2.84584 7.81818V8.62034C1.77635 8.77836 0.95 9.69812 0.95 10.8182C0.95 12.0485 1.94378 13.05 3.16666 13.05C4.38954 13.05 5.38332 12.0485 5.38332 10.8182C5.38332 9.69809 4.55696 8.77833 3.48747 8.62034V7.81818C3.48747 7.54477 3.70824 7.32274 3.97913 7.32274H11.0208C11.2918 7.32274 11.5125 7.54477 11.5125 7.81818V8.62034C10.443 8.77836 9.61666 9.69809 9.61666 10.8182C9.61666 12.0485 10.6104 13.05 11.8333 13.05C13.0562 13.05 14.05 12.0485 14.05 10.8182ZM4.74166 10.8182C4.74166 11.6933 4.0348 12.4046 3.16666 12.4046C2.29851 12.4046 1.59166 11.6933 1.59166 10.8182C1.59166 9.94312 2.29851 9.23182 3.16666 9.23182C4.0348 9.23182 4.74166 9.94314 4.74166 10.8182ZM5.925 3.18182C5.925 2.30675 6.63186 1.59545 7.5 1.59545C8.36814 1.59545 9.075 2.30675 9.075 3.18182C9.075 4.05689 8.36814 4.76818 7.5 4.76818C6.63186 4.76818 5.925 4.05686 5.925 3.18182ZM11.8333 12.4046C10.9652 12.4046 10.2583 11.6933 10.2583 10.8182C10.2583 9.94312 10.9652 9.23182 11.8333 9.23182C12.7015 9.23182 13.4083 9.94312 13.4083 10.8182C13.4083 11.6933 12.7015 12.4046 11.8333 12.4046Z" fill="#2276F9" stroke="currentColor" stroke-width="0.1"/>
</symbol>


</svg>