<svg width="9" height="12" viewBox="0 0 9 12" fill="none" xmlns="http://www.w3.org/2000/svg">
<path d="M0.185809 9.54968C0.219243 9.52678 0.470872 9.34081 0.722836 8.77819C1.18555 7.74502 1.28268 6.28959 1.28268 5.25059C1.28268 5.24606 1.28277 5.24159 1.28292 5.23709C1.28796 3.86391 2.06733 2.68017 3.18262 2.14905V1.33678C3.18262 0.599672 3.75008 0 4.44759 0H4.55242C5.24993 0 5.81739 0.599672 5.81739 1.33678V2.14901C6.9364 2.68184 7.71733 3.87162 7.71733 5.25059C7.71733 6.28959 7.81445 7.74499 8.27717 8.77819C8.52911 9.34078 8.78074 9.52676 8.8142 9.54968C8.95508 9.61847 9.02455 9.77738 8.99214 9.93841C8.95942 10.101 8.81533 10.2132 8.65798 10.2132H6.2155C6.20186 11.2009 5.4378 12 4.49999 12C3.56218 12 2.79812 11.2009 2.78448 10.2132H0.342003C0.184676 10.2132 0.0405674 10.101 0.00784397 9.93841C-0.0245228 9.77738 0.0449219 9.61845 0.185809 9.54968ZM5.15091 1.33678C5.15091 0.988008 4.88242 0.704273 4.5524 0.704273H4.44756C4.11754 0.704273 3.84905 0.988008 3.84905 1.33678V1.92077C4.05938 1.87491 4.27711 1.85077 4.50008 1.85077C4.72299 1.85077 4.94065 1.87488 5.15089 1.9207V1.33678H5.15091ZM4.49999 11.2957C5.07032 11.2957 5.53552 10.8125 5.54905 10.2132H3.45095C3.46446 10.8125 3.92967 11.2957 4.49999 11.2957ZM3.1582 9.50887C3.15827 9.50887 7.89856 9.50887 7.89856 9.50887C7.84091 9.41409 7.78224 9.30677 7.72393 9.18548C7.27732 8.25635 7.05086 6.93246 7.05086 5.25059C7.05086 3.76425 5.90658 2.55504 4.5001 2.55504C3.09362 2.55504 1.94935 3.76425 1.94935 5.25176C1.94935 5.25609 1.94928 5.26041 1.94913 5.26472C1.94786 6.93984 1.72142 8.25898 1.27606 9.18548C1.21774 9.3068 1.15905 9.41409 1.10142 9.50887H3.1582Z" fill="#2276F9"/>
</svg>
