<svg width="31" height="31" viewBox="0 0 31 31" fill="none" xmlns="http://www.w3.org/2000/svg">
<path d="M15.5 0C6.93911 0 0 6.8563 0 15.315C0 23.7737 6.93911 30.63 15.5 30.63C24.0609 30.63 31 23.7737 31 15.315C31 6.8563 24.0609 0 15.5 0ZM15.5 29.9313C7.32993 29.9313 0.707204 23.3876 0.707204 15.315C0.707204 7.24245 7.32993 0.701391 15.5 0.701391C23.6701 0.701391 30.2928 7.24508 30.2928 15.3176C30.2928 23.3902 23.6701 29.9313 15.5 29.9313Z" fill="#2276F9"/>
<path d="M19.5253 18.5302H24.396C25.0607 18.5302 25.4834 17.9759 25.4249 17.2273C25.4249 16.4523 25.0128 16.0163 23.4921 16.0163C20.8414 15.9401 20.174 13.3578 20.174 12.4883H24.2391C26.834 12.4883 28.9397 14.5662 28.9397 17.1327V17.3218C28.9397 19.8857 26.8366 21.9663 24.2391 21.9663H22.6439C20.9078 21.9663 19.5067 20.5661 19.5253 18.8533V18.5302Z" fill="url(#paint0_linear)"/>
<path d="M16.0371 8.93408V18.5907C16.0371 20.4558 17.5658 21.9663 19.4535 21.9663H23.3298C19.4535 21.9663 19.5279 18.5303 19.5279 18.5303L19.4535 12.3097C19.4535 10.4446 17.9221 8.93408 16.0371 8.93408Z" fill="#0085FF"/>
<path d="M11.3208 12.3701H6.45017C5.78551 12.3701 5.36278 12.9244 5.42127 13.6731C5.42127 14.448 5.83336 14.8841 7.35412 14.8841C10.0048 14.9603 10.6721 17.5425 10.6721 18.4121H6.60969C4.01484 18.4121 1.90918 16.3342 1.90918 13.7676V13.5785C1.90918 11.0146 4.01218 8.93408 6.60969 8.93408H8.20489C9.941 8.93408 11.3421 10.3342 11.3235 12.047L11.3208 12.3701Z" fill="url(#paint1_linear)"/>
<path d="M14.8115 21.9663V12.3097C14.8115 10.4446 13.2828 8.93408 11.3951 8.93408H7.5188C11.3951 8.93408 11.3207 12.3701 11.3207 12.3701L11.3951 18.5907C11.3951 20.4532 12.9239 21.9663 14.8115 21.9663Z" fill="#0095FF"/>
<defs>
<linearGradient id="paint0_linear" x1="28.4718" y1="15.9224" x2="19.2865" y2="17.9659" gradientUnits="userSpaceOnUse">
<stop offset="0.0171519" stop-color="#0063FF"/>
<stop offset="0.3602" stop-color="#0061FF"/>
<stop offset="0.5143" stop-color="#005AFF"/>
<stop offset="0.6306" stop-color="#004DFF"/>
<stop offset="0.7279" stop-color="#003BFF"/>
<stop offset="0.8133" stop-color="#0023FF"/>
<stop offset="0.8893" stop-color="#0007FF"/>
<stop offset="0.9052" stop-color="#0000FF"/>
</linearGradient>
<linearGradient id="paint1_linear" x1="2.28801" y1="15.1687" x2="11.409" y2="12.861" gradientUnits="userSpaceOnUse">
<stop offset="0.2986" stop-color="#0095FF"/>
<stop offset="0.5554" stop-color="#0093FF"/>
<stop offset="0.6708" stop-color="#008CFF"/>
<stop offset="0.7578" stop-color="#007FFF"/>
<stop offset="0.8307" stop-color="#006DFF"/>
<stop offset="0.8947" stop-color="#0055FF"/>
<stop offset="0.9515" stop-color="#0039FF"/>
<stop offset="1" stop-color="#001AFF"/>
</linearGradient>
</defs>
</svg>
